<svg width="41" height="43" viewBox="0 0 41 43" fill="none" xmlns="http://www.w3.org/2000/svg">
<path d="M26.5574 43H13.8157C12.9397 43 12.223 42.2833 12.223 41.4073C12.223 40.5313 12.9397 39.8146 13.8157 39.8146H26.5574C27.4334 39.8146 28.1501 40.5313 28.1501 41.4073C28.1501 42.2833 27.4334 43 26.5574 43Z" fill="#2476FE"/>
<path d="M4.44519 36.6291C3.59575 36.6291 2.79939 36.284 2.18885 35.7C1.57831 35.0895 1.25977 34.2931 1.25977 33.4437C1.25977 32.8862 1.41904 32.3288 1.68449 31.851C2.85248 29.8335 4.28592 25.9579 4.28592 19.1358C4.28592 14.8886 5.90518 10.9068 8.90479 7.88063C11.9044 4.85448 15.8862 3.18213 20.1334 3.18213C20.16 3.18213 20.16 3.18213 20.1865 3.18213C24.4072 3.18213 28.389 4.82793 31.3886 7.801C34.3882 10.8006 36.0606 14.7824 36.0606 19.0296V19.1093C36.0606 25.9579 37.4674 29.807 38.662 31.851C39.0867 32.5677 39.2194 33.4437 38.9805 34.2666C38.7682 35.0895 38.2373 35.7797 37.5205 36.2044C37.0427 36.4964 36.4853 36.6291 35.9278 36.6291H4.44519ZM20.1865 6.36756H20.16C13.152 6.3941 7.47135 12.1013 7.49789 19.1093C7.49789 26.6481 5.85209 31.0546 4.47174 33.4437H35.9278C34.5475 31.0546 32.9017 26.6481 32.9017 19.1093V19.0296C32.9017 15.6318 31.5744 12.4464 29.1588 10.0573C26.7432 7.66827 23.5578 6.36756 20.1865 6.36756Z" fill="#2476FE"/>
<path d="M38.7682 11.5705C38.1842 11.5705 37.6267 11.2519 37.3347 10.6945C35.7686 7.50904 33.353 4.85452 30.3534 2.94326C29.6101 2.46545 29.3977 1.48327 29.849 0.740009C30.3268 -0.00325741 31.309 -0.215619 32.0522 0.235649C35.5297 2.4389 38.3435 5.57124 40.1751 9.26102C40.5733 10.0574 40.2282 11.013 39.4584 11.3846C39.246 11.5174 39.0071 11.5705 38.7682 11.5705Z" fill="#2476FE"/>
<path d="M1.60486 11.5705C1.36596 11.5705 1.12705 11.5174 0.888141 11.4112C0.0917849 11.013 -0.226757 10.0574 0.171421 9.28757C2.00304 5.59778 4.81683 2.46544 8.29426 0.262191C9.03752 -0.215623 10.0197 0.0232835 10.4975 0.76655C10.9753 1.50982 10.7364 2.49199 9.99315 2.9698C6.99354 4.85451 4.57793 7.53558 3.01176 10.721C2.74631 11.2519 2.18886 11.5705 1.60486 11.5705Z" fill="#2476FE"/>
</svg>
