<svg width="43" height="43" viewBox="0 0 43 43" fill="none" xmlns="http://www.w3.org/2000/svg">
<path d="M31.0059 43C13.8952 43 0 29.1048 0 11.9941C0 5.93651 4.53604 0.797573 10.5363 0.022426C12.0578 -0.149829 13.522 0.682736 14.1249 2.08948L18.46 12.1664C18.9193 13.2286 18.8045 14.4344 18.1729 15.4105L14.5842 20.894C16.192 24.1668 18.8906 26.8655 22.1922 28.4445L27.5608 24.8271C28.5369 24.1668 29.7427 24.052 30.8336 24.54L40.9105 28.8751C42.3173 29.478 43.1498 30.9422 42.9776 32.4637C42.2024 38.464 37.0635 43 31.0059 43ZM10.9382 3.43881C6.68923 3.98429 3.4451 7.65905 3.4451 11.9941C3.4451 27.1813 15.8187 39.5549 31.0059 39.5549C35.3409 39.5549 39.0157 36.3108 39.5612 32.0331L29.4843 27.7267L24.087 31.3154C23.0821 31.9757 21.7902 32.0905 20.6993 31.5738C16.7087 29.6502 13.4359 26.3774 11.4837 22.4156C10.9669 21.3246 11.053 20.0327 11.7133 19.0279L15.302 13.5731L10.9382 3.43881Z" fill="#2476FE"/>
<path d="M37.8961 15.4392C36.9487 15.4392 36.1735 14.664 36.1735 13.7166V6.82644H29.2833C28.3359 6.82644 27.5608 6.0513 27.5608 5.1039C27.5608 4.15649 28.3359 3.38135 29.2833 3.38135H37.8961C38.8435 3.38135 39.6186 4.15649 39.6186 5.1039V13.7166C39.6186 14.664 38.8435 15.4392 37.8961 15.4392Z" fill="#2476FE"/>
<path d="M27.5608 17.1618C27.1301 17.1618 26.6708 16.9895 26.355 16.645C25.6947 15.9847 25.6947 14.8937 26.355 14.2047L36.6903 3.86944C37.3506 3.20913 38.4415 3.20913 39.1305 3.86944C39.7908 4.52975 39.7908 5.6207 39.1305 6.30972L28.7952 16.645C28.4507 16.9895 27.9914 17.1618 27.5608 17.1618Z" fill="#2476FE"/>
</svg>
