<svg width="44" height="43" viewBox="0 0 44 43" fill="none" xmlns="http://www.w3.org/2000/svg">
<path d="M21.5031 43C17.9456 43 14.3881 42.1175 11.1616 40.3526L4.95663 42.1175C3.19167 42.6139 1.37156 41.5935 0.875162 39.8562C0.709697 39.2495 0.709697 38.6428 0.875162 38.036L2.64012 31.8587C-2.90296 21.7377 0.544231 8.94178 10.5273 3.01261C15.4637 0.0893967 21.2549 -0.737928 26.8256 0.668525C32.3963 2.10255 37.0569 5.6049 40.0076 10.5413C46.0471 20.7449 42.6827 33.9546 32.479 39.9941C29.087 42.0072 25.2813 43 21.5031 43ZM11.3822 36.9054C11.6855 36.9054 11.9613 36.9881 12.2371 37.126C17.9732 40.518 25.0882 40.518 30.7968 37.126C34.9885 34.644 37.9393 30.7004 39.1527 25.9847C40.3662 21.2689 39.6491 16.3877 37.1672 12.1959C32.0377 3.56416 20.8689 0.72368 12.2371 5.82552C8.04531 8.30749 5.09452 12.2511 3.88111 16.9668C2.6677 21.6826 3.38472 26.5638 5.86669 30.7556C6.08731 31.1417 6.17004 31.6105 6.03216 32.0517L4.07415 38.9185L10.941 36.9605C11.0513 36.9329 11.2167 36.9054 11.3822 36.9054Z" fill="black"/>
<path d="M28.1217 19.8349H14.8845C13.9745 19.8349 13.2299 19.0903 13.2299 18.1803C13.2299 17.2702 13.9745 16.5256 14.8845 16.5256H28.1217C29.0318 16.5256 29.7764 17.2702 29.7764 18.1803C29.7764 19.0903 29.0318 19.8349 28.1217 19.8349Z" fill="black"/>
<path d="M28.1217 26.4535H14.8845C13.9745 26.4535 13.2299 25.7089 13.2299 24.7988C13.2299 23.8888 13.9745 23.1442 14.8845 23.1442H28.1217C29.0318 23.1442 29.7764 23.8888 29.7764 24.7988C29.7764 25.7089 29.0318 26.4535 28.1217 26.4535Z" fill="black"/>
</svg>
