<svg width="769" height="437" viewBox="0 0 769 437" fill="none" xmlns="http://www.w3.org/2000/svg">
<path d="M38.056 280.592C32.488 280.592 27.4 279.584 22.792 277.568C18.28 275.552 14.344 272.768 10.984 269.216C7.62397 265.568 5.03197 261.296 3.20797 256.4C1.47997 251.504 0.615967 246.224 0.615967 240.56V237.248C0.615967 231.584 1.43197 226.304 3.06397 221.408C4.79197 216.512 7.23997 212.24 10.408 208.592C13.672 204.848 17.56 201.968 22.072 199.952C26.584 197.84 31.624 196.784 37.192 196.784C43.528 196.784 49 198.176 53.608 200.96C58.216 203.648 61.816 207.68 64.408 213.056C67 218.336 68.44 224.864 68.728 232.64L62.68 227.024V172.88H85.864V278H67.576V245.312H70.744C70.456 252.8 68.872 259.184 65.992 264.464C63.208 269.744 59.416 273.776 54.616 276.56C49.816 279.248 44.296 280.592 38.056 280.592ZM43.816 261.296C47.368 261.296 50.584 260.528 53.464 258.992C56.44 257.36 58.792 255.008 60.52 251.936C62.344 248.864 63.256 245.168 63.256 240.848V235.52C63.256 231.296 62.344 227.744 60.52 224.864C58.696 221.984 56.296 219.776 53.32 218.24C50.344 216.704 47.128 215.936 43.672 215.936C39.832 215.936 36.376 216.944 33.304 218.96C30.328 220.88 27.976 223.568 26.248 227.024C24.52 230.384 23.656 234.32 23.656 238.832C23.656 243.44 24.52 247.424 26.248 250.784C27.976 254.144 30.376 256.736 33.448 258.56C36.52 260.384 39.976 261.296 43.816 261.296Z" fill="black"/>
<path d="M142.906 280.736C136.186 280.736 130.234 279.584 125.05 277.28C119.962 274.976 115.69 271.904 112.234 268.064C108.874 264.128 106.282 259.76 104.458 254.96C102.73 250.064 101.866 245.072 101.866 239.984V237.104C101.866 231.824 102.73 226.784 104.458 221.984C106.282 217.088 108.874 212.72 112.234 208.88C115.594 205.04 119.77 202.016 124.762 199.808C129.85 197.504 135.61 196.352 142.042 196.352C150.49 196.352 157.594 198.272 163.354 202.112C169.21 205.856 173.674 210.8 176.746 216.944C179.818 222.992 181.354 229.616 181.354 236.816V244.592H111.514V231.488H167.386L159.898 237.536C159.898 232.832 159.226 228.8 157.882 225.44C156.538 222.08 154.522 219.536 151.834 217.808C149.242 215.984 145.978 215.072 142.042 215.072C138.01 215.072 134.602 215.984 131.818 217.808C129.034 219.632 126.922 222.32 125.482 225.872C124.042 229.328 123.322 233.6 123.322 238.688C123.322 243.392 123.994 247.52 125.338 251.072C126.682 254.528 128.794 257.216 131.674 259.136C134.554 261.056 138.298 262.016 142.906 262.016C147.13 262.016 150.586 261.2 153.274 259.568C155.962 257.936 157.786 255.92 158.746 253.52H179.914C178.762 258.8 176.506 263.504 173.146 267.632C169.786 271.76 165.562 274.976 160.474 277.28C155.386 279.584 149.53 280.736 142.906 280.736Z" fill="black"/>
<path d="M211.182 278L187.566 199.088H211.326L233.502 278H211.182ZM218.382 278V258.848H241.566V278H218.382ZM226.878 278L246.03 199.088H268.206L247.758 278H226.878Z" fill="black"/>
<path d="M316.156 280.736C309.436 280.736 303.484 279.584 298.3 277.28C293.212 274.976 288.94 271.904 285.484 268.064C282.124 264.128 279.532 259.76 277.708 254.96C275.98 250.064 275.116 245.072 275.116 239.984V237.104C275.116 231.824 275.98 226.784 277.708 221.984C279.532 217.088 282.124 212.72 285.484 208.88C288.844 205.04 293.02 202.016 298.012 199.808C303.1 197.504 308.86 196.352 315.292 196.352C323.74 196.352 330.844 198.272 336.604 202.112C342.46 205.856 346.924 210.8 349.996 216.944C353.068 222.992 354.604 229.616 354.604 236.816V244.592H284.764V231.488H340.636L333.148 237.536C333.148 232.832 332.476 228.8 331.132 225.44C329.788 222.08 327.772 219.536 325.084 217.808C322.492 215.984 319.228 215.072 315.292 215.072C311.26 215.072 307.852 215.984 305.068 217.808C302.284 219.632 300.172 222.32 298.732 225.872C297.292 229.328 296.572 233.6 296.572 238.688C296.572 243.392 297.244 247.52 298.588 251.072C299.932 254.528 302.044 257.216 304.924 259.136C307.804 261.056 311.548 262.016 316.156 262.016C320.38 262.016 323.836 261.2 326.524 259.568C329.212 257.936 331.036 255.92 331.996 253.52H353.164C352.012 258.8 349.756 263.504 346.396 267.632C343.036 271.76 338.812 274.976 333.724 277.28C328.636 279.584 322.78 280.736 316.156 280.736Z" fill="black"/>
<path d="M370.879 278V172.88H394.063V278H370.879ZM361.519 189.872V172.88H394.063V189.872H361.519Z" fill="black"/>
<path d="M453.741 280.736C446.829 280.736 440.685 279.68 435.309 277.568C429.933 275.36 425.373 272.384 421.629 268.64C417.981 264.896 415.197 260.624 413.277 255.824C411.357 250.928 410.397 245.792 410.397 240.416V237.104C410.397 231.632 411.357 226.448 413.277 221.552C415.293 216.56 418.173 212.192 421.917 208.448C425.757 204.704 430.365 201.776 435.741 199.664C441.117 197.456 447.117 196.352 453.741 196.352C460.557 196.352 466.605 197.456 471.885 199.664C477.261 201.776 481.821 204.704 485.565 208.448C489.309 212.192 492.189 216.56 494.205 221.552C496.221 226.448 497.229 231.632 497.229 237.104V240.416C497.229 245.792 496.269 250.928 494.349 255.824C492.429 260.624 489.597 264.896 485.853 268.64C482.205 272.384 477.693 275.36 472.317 277.568C466.941 279.68 460.749 280.736 453.741 280.736ZM453.741 261.296C458.253 261.296 461.997 260.336 464.973 258.416C467.949 256.496 470.205 253.808 471.741 250.352C473.373 246.896 474.189 243.056 474.189 238.832C474.189 234.32 473.373 230.384 471.741 227.024C470.109 223.568 467.757 220.832 464.685 218.816C461.709 216.8 458.061 215.792 453.741 215.792C449.517 215.792 445.869 216.8 442.797 218.816C439.725 220.832 437.373 223.568 435.741 227.024C434.205 230.384 433.437 234.32 433.437 238.832C433.437 243.056 434.205 246.896 435.741 250.352C437.277 253.808 439.581 256.496 442.653 258.416C445.725 260.336 449.421 261.296 453.741 261.296Z" fill="black"/>
<path d="M513.309 306.8V199.088H531.597V233.216L529.149 233.072C529.533 225.2 531.165 218.576 534.045 213.2C536.925 207.728 540.813 203.648 545.709 200.96C550.605 198.176 556.125 196.784 562.269 196.784C567.741 196.784 572.685 197.792 577.101 199.808C581.613 201.824 585.453 204.656 588.621 208.304C591.885 211.856 594.333 216.08 595.965 220.976C597.693 225.776 598.557 231.056 598.557 236.816V240.128C598.557 245.792 597.741 251.12 596.109 256.112C594.477 261.008 592.077 265.28 588.909 268.928C585.837 272.576 582.045 275.456 577.533 277.568C573.117 279.584 568.029 280.592 562.269 280.592C556.317 280.592 550.941 279.392 546.141 276.992C541.437 274.496 537.645 270.752 534.765 265.76C531.885 260.672 530.301 254.24 530.013 246.464L536.349 255.104V306.8H513.309ZM555.789 261.296C559.725 261.296 563.133 260.336 566.013 258.416C568.989 256.496 571.293 253.808 572.925 250.352C574.557 246.896 575.373 242.912 575.373 238.4C575.373 233.888 574.557 229.952 572.925 226.592C571.293 223.232 569.037 220.64 566.157 218.816C563.277 216.896 559.821 215.936 555.789 215.936C552.333 215.936 549.069 216.752 545.997 218.384C542.925 220.016 540.429 222.368 538.509 225.44C536.685 228.416 535.773 232.064 535.773 236.384V241.712C535.773 245.84 536.733 249.392 538.653 252.368C540.669 255.248 543.213 257.456 546.285 258.992C549.357 260.528 552.525 261.296 555.789 261.296Z" fill="black"/>
<path d="M216 63C216 72.9411 207.941 81 198 81C188.059 81 180 72.9411 180 63C180 53.0589 188.059 45 198 45C207.941 45 216 53.0589 216 63Z" fill="black"/>
<path d="M196 337C196 349.703 185.703 360 173 360C160.297 360 150 349.703 150 337C150 324.297 160.297 314 173 314C185.703 314 196 324.297 196 337Z" fill="black"/>
<path d="M629 229C629 240.046 620.046 249 609 249C597.954 249 589 240.046 589 229C589 217.954 597.954 209 609 209C620.046 209 629 217.954 629 229Z" fill="black"/>
<path d="M215.464 410.448C204.232 410.448 195.448 408.144 189.112 403.536C182.776 398.928 179.416 392.448 179.032 384.096H199.48C199.864 386.592 201.352 388.848 203.944 390.864C206.632 392.784 210.616 393.744 215.896 393.744C219.928 393.744 223.24 393.072 225.832 391.728C228.52 390.288 229.864 388.272 229.864 385.68C229.864 383.376 228.856 381.552 226.84 380.208C224.824 378.768 221.224 377.76 216.04 377.184L209.848 376.608C200.344 375.648 193.192 373.008 188.392 368.688C183.688 364.368 181.336 358.848 181.336 352.128C181.336 346.56 182.728 341.904 185.512 338.16C188.296 334.416 192.136 331.584 197.032 329.664C202.024 327.744 207.688 326.784 214.024 326.784C224.2 326.784 232.408 329.04 238.648 333.552C244.888 337.968 248.152 344.4 248.44 352.848H227.992C227.608 350.256 226.264 348.096 223.96 346.368C221.656 344.544 218.248 343.632 213.736 343.632C210.184 343.632 207.352 344.304 205.24 345.648C203.128 346.992 202.072 348.816 202.072 351.12C202.072 353.328 202.984 355.008 204.808 356.16C206.632 357.312 209.608 358.128 213.736 358.608L219.928 359.184C229.624 360.24 237.16 362.928 242.536 367.248C247.912 371.568 250.6 377.376 250.6 384.672C250.6 389.952 249.16 394.56 246.28 398.496C243.4 402.336 239.32 405.312 234.04 407.424C228.76 409.44 222.568 410.448 215.464 410.448Z" fill="black"/>
<path d="M292.168 410.448C283.048 410.448 276.04 407.52 271.144 401.664C266.248 395.712 263.8 386.784 263.8 374.88V329.088H286.84V376.032C286.84 380.256 288.04 383.616 290.44 386.112C292.84 388.608 296.056 389.856 300.088 389.856C304.216 389.856 307.576 388.56 310.168 385.968C312.76 383.376 314.056 379.872 314.056 375.456V329.088H337.096V408H318.808V374.736H320.392C320.392 382.704 319.336 389.376 317.224 394.752C315.208 400.032 312.184 403.968 308.152 406.56C304.12 409.152 299.128 410.448 293.176 410.448H292.168Z" fill="black"/>
<path d="M358.34 436.8V329.088H376.628V363.216L374.18 363.072C374.564 355.2 376.196 348.576 379.076 343.2C381.956 337.728 385.844 333.648 390.74 330.96C395.636 328.176 401.156 326.784 407.3 326.784C412.772 326.784 417.716 327.792 422.132 329.808C426.644 331.824 430.484 334.656 433.652 338.304C436.916 341.856 439.364 346.08 440.996 350.976C442.724 355.776 443.588 361.056 443.588 366.816V370.128C443.588 375.792 442.772 381.12 441.14 386.112C439.508 391.008 437.108 395.28 433.94 398.928C430.868 402.576 427.076 405.456 422.564 407.568C418.148 409.584 413.06 410.592 407.3 410.592C401.348 410.592 395.972 409.392 391.172 406.992C386.468 404.496 382.676 400.752 379.796 395.76C376.916 390.672 375.332 384.24 375.044 376.464L381.38 385.104V436.8H358.34ZM400.82 391.296C404.756 391.296 408.164 390.336 411.044 388.416C414.02 386.496 416.324 383.808 417.956 380.352C419.588 376.896 420.404 372.912 420.404 368.4C420.404 363.888 419.588 359.952 417.956 356.592C416.324 353.232 414.068 350.64 411.188 348.816C408.308 346.896 404.852 345.936 400.82 345.936C397.364 345.936 394.1 346.752 391.028 348.384C387.956 350.016 385.46 352.368 383.54 355.44C381.716 358.416 380.804 362.064 380.804 366.384V371.712C380.804 375.84 381.764 379.392 383.684 382.368C385.7 385.248 388.244 387.456 391.316 388.992C394.388 390.528 397.556 391.296 400.82 391.296Z" fill="black"/>
<path d="M459.59 436.8V329.088H477.878V363.216L475.43 363.072C475.814 355.2 477.446 348.576 480.326 343.2C483.206 337.728 487.094 333.648 491.99 330.96C496.886 328.176 502.406 326.784 508.55 326.784C514.022 326.784 518.966 327.792 523.382 329.808C527.894 331.824 531.734 334.656 534.902 338.304C538.166 341.856 540.614 346.08 542.246 350.976C543.974 355.776 544.838 361.056 544.838 366.816V370.128C544.838 375.792 544.022 381.12 542.39 386.112C540.758 391.008 538.358 395.28 535.19 398.928C532.118 402.576 528.326 405.456 523.814 407.568C519.398 409.584 514.31 410.592 508.55 410.592C502.598 410.592 497.222 409.392 492.422 406.992C487.718 404.496 483.926 400.752 481.046 395.76C478.166 390.672 476.582 384.24 476.294 376.464L482.63 385.104V436.8H459.59ZM502.07 391.296C506.006 391.296 509.414 390.336 512.294 388.416C515.27 386.496 517.574 383.808 519.206 380.352C520.838 376.896 521.654 372.912 521.654 368.4C521.654 363.888 520.838 359.952 519.206 356.592C517.574 353.232 515.318 350.64 512.438 348.816C509.558 346.896 506.102 345.936 502.07 345.936C498.614 345.936 495.35 346.752 492.278 348.384C489.206 350.016 486.71 352.368 484.79 355.44C482.966 358.416 482.054 362.064 482.054 366.384V371.712C482.054 375.84 483.014 379.392 484.934 382.368C486.95 385.248 489.494 387.456 492.566 388.992C495.638 390.528 498.806 391.296 502.07 391.296Z" fill="black"/>
<path d="M599.288 410.736C592.376 410.736 586.232 409.68 580.856 407.568C575.48 405.36 570.92 402.384 567.176 398.64C563.528 394.896 560.744 390.624 558.824 385.824C556.904 380.928 555.944 375.792 555.944 370.416V367.104C555.944 361.632 556.904 356.448 558.824 351.552C560.84 346.56 563.72 342.192 567.464 338.448C571.304 334.704 575.912 331.776 581.288 329.664C586.664 327.456 592.664 326.352 599.288 326.352C606.104 326.352 612.152 327.456 617.432 329.664C622.808 331.776 627.368 334.704 631.112 338.448C634.856 342.192 637.736 346.56 639.752 351.552C641.768 356.448 642.776 361.632 642.776 367.104V370.416C642.776 375.792 641.816 380.928 639.896 385.824C637.976 390.624 635.144 394.896 631.4 398.64C627.752 402.384 623.24 405.36 617.864 407.568C612.488 409.68 606.296 410.736 599.288 410.736ZM599.288 391.296C603.8 391.296 607.544 390.336 610.52 388.416C613.496 386.496 615.752 383.808 617.288 380.352C618.92 376.896 619.736 373.056 619.736 368.832C619.736 364.32 618.92 360.384 617.288 357.024C615.656 353.568 613.304 350.832 610.232 348.816C607.256 346.8 603.608 345.792 599.288 345.792C595.064 345.792 591.416 346.8 588.344 348.816C585.272 350.832 582.92 353.568 581.288 357.024C579.752 360.384 578.984 364.32 578.984 368.832C578.984 373.056 579.752 376.896 581.288 380.352C582.824 383.808 585.128 386.496 588.2 388.416C591.272 390.336 594.968 391.296 599.288 391.296Z" fill="black"/>
<path d="M658.856 408V329.088H677.144V362.928H676.712C676.712 351.792 679.064 343.2 683.768 337.152C688.568 331.104 695.48 328.08 704.504 328.08H707.528V347.952H701.768C695.432 347.952 690.536 349.68 687.08 353.136C683.624 356.496 681.896 361.392 681.896 367.824V408H658.856Z" fill="black"/>
<path d="M757.149 409.008C749.181 409.008 742.749 408.048 737.853 406.128C732.957 404.112 729.357 400.8 727.053 396.192C724.845 391.488 723.741 385.152 723.741 377.184V307.776H745.197V378.048C745.197 381.792 746.157 384.672 748.077 386.688C750.093 388.608 752.925 389.568 756.573 389.568H768.237V409.008H757.149ZM711.789 345.936V329.088H768.237V345.936H711.789Z" fill="black"/>
<path d="M275.988 139.171C277.194 139.171 277.998 139.506 278.4 140.176C278.936 140.712 279.204 141.382 279.204 142.186C279.204 142.856 278.869 143.526 278.199 144.196C277.663 144.732 276.926 145 275.988 145H256.089C254.079 145 252.94 143.995 252.672 141.985V135.352C251.868 136.424 250.796 137.63 249.456 138.97C248.25 140.176 246.709 141.382 244.833 142.588C242.957 143.66 240.746 144.531 238.2 145.201C235.654 146.005 232.773 146.407 229.557 146.407C227.413 146.407 224.8 145.871 221.718 144.799C218.636 143.727 215.688 141.516 212.874 138.166C210.06 134.682 207.648 129.858 205.638 123.694C203.628 117.53 202.623 109.289 202.623 98.971C202.623 88.787 203.628 80.546 205.638 74.248C207.648 67.95 210.06 63.059 212.874 59.575C215.688 56.091 218.636 53.746 221.718 52.54C224.8 51.334 227.413 50.731 229.557 50.731C232.907 50.731 235.855 51.133 238.401 51.937C240.947 52.741 243.158 53.746 245.034 54.952C246.91 56.158 248.451 57.431 249.657 58.771C250.997 60.111 252.069 61.317 252.873 62.389V20.782C252.873 19.978 252.672 19.241 252.27 18.571C251.868 17.901 251.399 17.298 250.863 16.762C250.327 16.226 249.657 15.757 248.853 15.355C247.781 14.819 246.977 14.216 246.441 13.546C246.039 12.876 245.905 12.206 246.039 11.536C246.173 10.866 247.111 10.129 248.853 9.32498C252.739 7.44898 256.424 5.84098 259.908 4.50097C263.526 3.16097 265.804 2.35698 266.742 2.08898C267.948 1.68698 268.886 1.35198 269.556 1.08399C270.36 0.815981 270.963 0.748975 271.365 0.882982C271.767 1.01698 272.035 1.48598 272.169 2.28998C272.303 2.95998 272.37 4.09898 272.37 5.70698V20.782C272.37 38.068 272.303 52.607 272.169 64.399C272.169 76.191 272.169 85.973 272.169 93.745C272.169 101.383 272.169 107.279 272.169 111.433C272.169 115.587 272.169 118.669 272.169 120.679C272.169 122.555 272.169 123.694 272.169 124.096C272.169 124.498 272.169 124.766 272.169 124.9C272.169 126.508 272.169 128.183 272.169 129.925C272.303 131.533 272.504 133.074 272.772 134.548C273.04 135.888 273.442 137.027 273.978 137.965C274.514 138.769 275.184 139.171 275.988 139.171ZM235.386 142.387C237.798 142.387 239.942 141.985 241.818 141.181C243.694 140.377 245.302 139.372 246.642 138.166C248.116 136.826 249.322 135.419 250.26 133.945C251.198 132.337 252.002 130.863 252.672 129.523L252.873 68.218C252.203 66.744 251.332 65.27 250.26 63.796C249.322 62.188 248.116 60.714 246.642 59.374C245.302 58.034 243.694 56.962 241.818 56.158C239.942 55.354 237.798 54.952 235.386 54.952C232.17 54.952 229.691 56.292 227.949 58.972C226.207 61.518 224.867 64.935 223.929 69.223C223.125 73.377 222.589 78.067 222.321 83.293C222.187 88.519 222.12 93.745 222.12 98.971C222.12 104.197 222.187 109.423 222.321 114.649C222.589 119.741 223.125 124.364 223.929 128.518C224.867 132.672 226.207 136.022 227.949 138.568C229.691 141.114 232.17 142.387 235.386 142.387Z" fill="black"/>
<path d="M353.821 73.444C353.821 78.67 352.883 83.025 351.007 86.509C349.131 89.993 346.719 92.807 343.771 94.951C340.823 96.961 337.473 98.502 333.721 99.574C330.103 100.512 326.485 101.182 322.867 101.584C319.249 101.986 315.832 102.187 312.616 102.187C309.4 102.053 306.787 101.986 304.777 101.986C304.777 105.872 304.978 110.093 305.38 114.649C305.916 119.071 306.854 123.225 308.194 127.111C309.668 130.997 311.611 134.213 314.023 136.759C316.435 139.305 319.584 140.578 323.47 140.578C328.696 140.578 332.984 139.841 336.334 138.367C339.818 136.759 342.565 134.816 344.575 132.538C346.585 130.126 347.992 127.58 348.796 124.9C349.734 122.086 350.203 119.406 350.203 116.86C350.203 115.922 350.739 115.453 351.811 115.453C352.749 115.453 353.218 115.922 353.218 116.86C353.218 121.55 352.414 125.771 350.806 129.523C349.198 133.141 347.054 136.223 344.374 138.769C341.694 141.315 338.545 143.258 334.927 144.598C331.309 145.938 327.423 146.608 323.269 146.608C316.301 146.742 310.405 145.469 305.581 142.789C300.757 140.109 296.804 136.491 293.722 131.935C290.774 127.379 288.563 122.086 287.089 116.056C285.615 110.026 284.811 103.594 284.677 96.76C284.543 90.194 285.414 84.097 287.29 78.469C289.166 72.707 291.846 67.749 295.33 63.595C298.814 59.441 302.901 56.225 307.591 53.947C312.415 51.535 317.574 50.329 323.068 50.329C333.118 50.329 340.756 52.54 345.982 56.962C351.208 61.25 353.821 66.744 353.821 73.444ZM304.777 98.569C306.385 98.569 308.797 98.368 312.013 97.966C315.229 97.564 318.512 96.492 321.862 94.75C325.212 93.008 328.093 90.529 330.505 87.313C333.051 83.963 334.324 79.34 334.324 73.444C334.324 67.548 333.386 62.59 331.51 58.57C329.768 54.55 326.954 52.54 323.068 52.54C319.852 52.54 317.105 53.545 314.827 55.555C312.683 57.565 310.941 60.111 309.601 63.193C308.261 66.275 307.256 69.692 306.586 73.444C305.916 77.062 305.447 80.613 305.179 84.097C304.911 87.447 304.777 90.462 304.777 93.142C304.777 95.822 304.777 97.631 304.777 98.569Z" fill="black"/>
<path d="M394.174 89.323C398.73 91.333 403.353 93.343 408.043 95.353C412.867 97.363 417.155 99.574 420.907 101.986C424.659 104.398 427.741 107.145 430.153 110.227C432.565 113.309 433.771 116.927 433.771 121.081C433.771 126.307 432.632 130.595 430.354 133.945C428.076 137.161 425.195 139.707 421.711 141.583C418.361 143.459 414.609 144.732 410.455 145.402C406.301 146.072 402.415 146.407 398.797 146.407C395.447 146.407 391.695 145.938 387.541 145C383.521 144.062 379.702 142.655 376.084 140.779C372.466 138.769 369.451 136.29 367.039 133.342C364.627 130.394 363.421 126.977 363.421 123.091C363.421 120.411 363.89 118.066 364.828 116.056C365.9 113.912 367.24 112.17 368.848 110.83C370.456 109.49 372.198 108.686 374.074 108.418C376.084 108.15 378.094 108.485 380.104 109.423C382.114 110.361 383.521 111.567 384.325 113.041C385.129 114.381 385.531 115.855 385.531 117.463C385.531 118.937 385.129 120.478 384.325 122.086C383.521 123.56 382.449 124.967 381.109 126.307C379.367 128.049 378.697 129.858 379.099 131.734C379.635 133.61 380.841 135.285 382.717 136.759C384.727 138.233 387.139 139.506 389.953 140.578C392.767 141.516 395.715 141.985 398.797 141.985C404.023 141.985 408.311 140.846 411.661 138.568C415.011 136.29 417.088 133.543 417.892 130.327C418.696 127.111 417.959 123.694 415.681 120.076C413.537 116.458 409.45 113.309 403.42 110.629C400.338 109.289 396.653 107.748 392.365 106.006C388.077 104.13 383.99 101.919 380.104 99.373C376.218 96.693 372.868 93.678 370.054 90.328C367.24 86.844 365.833 82.757 365.833 78.067C365.833 69.893 368.513 63.327 373.873 58.369C379.233 53.411 387.541 50.932 398.797 50.932C404.023 50.932 408.579 51.669 412.465 53.143C416.485 54.483 419.835 56.225 422.515 58.369C425.195 60.379 427.205 62.657 428.545 65.203C429.885 67.749 430.555 70.161 430.555 72.439C430.555 75.655 430.086 78.335 429.148 80.479C428.344 82.489 427.205 84.097 425.731 85.303C424.391 86.375 422.85 87.045 421.108 87.313C419.5 87.581 417.959 87.38 416.485 86.71C413.001 85.37 410.924 83.025 410.254 79.675C409.584 76.325 410.991 72.908 414.475 69.424C416.083 67.816 417.021 66.141 417.289 64.399C417.691 62.657 417.289 61.049 416.083 59.575C414.877 57.967 412.867 56.694 410.053 55.756C407.239 54.684 403.487 54.148 398.797 54.148C392.633 54.148 388.077 55.622 385.129 58.57C382.315 61.518 380.841 65.002 380.707 69.022C380.573 72.908 381.645 76.794 383.923 80.68C386.335 84.566 389.752 87.447 394.174 89.323Z" fill="black"/>
<path d="M476.233 139.171C477.305 139.171 478.109 139.506 478.645 140.176C479.181 140.712 479.449 141.382 479.449 142.186C479.449 142.856 479.114 143.526 478.444 144.196C477.908 144.732 477.171 145 476.233 145H448.897C447.825 145 447.021 144.732 446.485 144.196C445.949 143.526 445.681 142.856 445.681 142.186C445.681 141.382 445.949 140.712 446.485 140.176C447.021 139.506 447.825 139.171 448.897 139.171C450.371 139.171 451.443 137.898 452.113 135.352C452.917 132.806 453.319 130.126 453.319 127.312V70.228C453.319 69.424 453.051 68.754 452.515 68.218C452.113 67.548 451.644 66.945 451.108 66.409C450.438 65.873 449.701 65.337 448.897 64.801C447.691 64.265 446.82 63.662 446.284 62.992C445.882 62.322 445.748 61.652 445.882 60.982C446.15 60.312 447.088 59.575 448.696 58.771C452.716 56.895 456.468 55.287 459.952 53.947C463.57 52.607 465.848 51.803 466.786 51.535C467.992 51.133 468.863 50.865 469.399 50.731C470.069 50.463 470.538 50.396 470.806 50.53C471.208 50.664 471.409 51.066 471.409 51.736C471.543 52.406 471.61 53.545 471.61 55.153V128.116C471.744 130.796 472.146 133.342 472.816 135.754C473.62 138.032 474.759 139.171 476.233 139.171ZM461.359 45.706C458.411 45.706 455.865 44.701 453.721 42.691C451.577 40.547 450.505 37.934 450.505 34.852C450.505 31.77 451.577 29.224 453.721 27.214C455.865 25.07 458.411 23.998 461.359 23.998C464.441 23.998 466.987 25.07 468.997 27.214C471.141 29.224 472.213 31.77 472.213 34.852C472.213 37.934 471.141 40.547 468.997 42.691C466.987 44.701 464.441 45.706 461.359 45.706Z" fill="black"/>
<path d="M571.601 43.696C571.869 45.304 571.668 46.711 570.998 47.917C570.462 49.123 569.591 50.061 568.385 50.731C567.179 51.267 565.839 51.535 564.365 51.535C562.891 51.535 561.35 51.066 559.742 50.128C557.866 48.922 556.459 48.721 555.521 49.525C554.583 50.329 553.98 51.468 553.712 52.942C553.444 54.282 553.31 55.756 553.31 57.364C553.444 58.972 553.511 59.977 553.511 60.379C560.881 67.749 564.566 77.33 564.566 89.122C564.566 95.152 563.427 100.847 561.149 106.207C559.005 111.567 555.387 116.391 550.295 120.679C553.779 122.421 556.794 125.369 559.34 129.523C562.02 133.543 563.695 138.166 564.365 143.392C565.169 148.484 564.834 153.777 563.36 159.271C561.886 164.899 558.737 170.125 553.913 174.949C550.697 178.165 546.878 180.711 542.456 182.587C538.034 184.597 533.478 185.87 528.788 186.406C524.098 187.076 519.408 187.009 514.718 186.205C510.028 185.535 505.874 184.061 502.256 181.783C498.638 179.639 495.69 176.691 493.412 172.939C491.134 169.321 489.995 164.832 489.995 159.472C489.995 157.462 490.263 155.318 490.799 153.04C491.469 150.762 492.474 148.417 493.814 146.005C495.288 143.727 497.164 141.583 499.442 139.573C501.72 137.429 504.601 135.62 508.085 134.146C510.765 132.94 513.378 132.337 515.924 132.337C518.604 132.203 520.949 132.538 522.959 133.342C524.969 134.146 526.577 135.352 527.783 136.96C529.123 138.568 529.793 140.377 529.793 142.387C529.793 143.995 529.391 145.603 528.587 147.211C527.917 148.953 526.778 150.36 525.17 151.432C523.696 152.504 521.82 153.04 519.542 153.04C517.398 153.174 514.852 152.437 511.904 150.829C510.43 150.025 508.621 149.355 506.477 148.819C504.333 148.417 502.256 148.417 500.246 148.819C498.37 149.221 496.762 150.226 495.422 151.834C494.082 153.442 493.412 155.988 493.412 159.472C493.412 164.564 494.886 168.584 497.834 171.532C500.782 174.48 504.601 176.155 509.291 176.557C513.981 177.093 519.207 176.155 524.969 173.743C530.731 171.465 536.359 167.579 541.853 162.085C544.935 159.003 547.347 155.519 549.089 151.633C550.965 147.747 552.104 143.928 552.506 140.176C553.042 136.29 552.841 132.806 551.903 129.724C551.099 126.508 549.558 124.163 547.28 122.689C544.466 124.565 541.384 126.039 538.034 127.111C534.684 128.049 531.401 128.518 528.185 128.518C524.299 128.518 520.145 127.714 515.723 126.106C511.435 124.498 507.482 122.086 503.864 118.87C500.246 115.52 497.298 111.366 495.02 106.408C492.742 101.45 491.737 95.688 492.005 89.122C491.737 82.556 492.742 76.794 495.02 71.836C497.432 66.878 500.447 62.791 504.065 59.575C507.683 56.225 511.636 53.746 515.924 52.138C520.212 50.53 524.299 49.726 528.185 49.726C531.669 49.726 535.287 50.396 539.039 51.736C542.791 52.942 546.342 54.818 549.692 57.364C550.362 52.272 551.434 48.252 552.908 45.304C554.382 42.222 556.66 39.944 559.742 38.47C560.68 38.068 561.752 37.8 562.958 37.666C564.298 37.532 565.504 37.666 566.576 38.068C567.782 38.47 568.854 39.14 569.792 40.078C570.73 40.882 571.333 42.088 571.601 43.696ZM528.185 125.704C531.803 125.704 534.617 124.431 536.627 121.885C538.771 119.205 540.312 115.989 541.25 112.237C542.322 108.485 542.992 104.532 543.26 100.378C543.528 96.09 543.662 92.338 543.662 89.122C543.662 86.576 543.528 83.226 543.26 79.072C543.126 74.918 542.59 70.898 541.652 67.012C540.714 63.126 539.173 59.776 537.029 56.962C534.885 54.148 531.937 52.741 528.185 52.741C517.867 52.741 512.708 64.868 512.708 89.122C512.708 113.51 517.867 125.704 528.185 125.704Z" fill="black"/>
<path d="M653.915 139.171C654.987 139.171 655.791 139.506 656.327 140.176C656.863 140.712 657.131 141.382 657.131 142.186C657.131 142.856 656.796 143.526 656.126 144.196C655.59 144.732 654.853 145 653.915 145H628.187C627.115 145 626.311 144.732 625.775 144.196C625.239 143.526 624.971 142.856 624.971 142.186C624.971 141.382 625.239 140.712 625.775 140.176C626.311 139.506 627.115 139.171 628.187 139.171C628.991 139.171 629.661 138.769 630.197 137.965C630.733 137.161 631.135 136.156 631.403 134.95C631.671 133.61 631.872 132.136 632.006 130.528C632.14 128.92 632.207 127.379 632.207 125.905V70.63C632.207 69.022 632.14 67.481 632.006 66.007C631.872 64.533 631.537 63.26 631.001 62.188C630.465 60.982 629.527 60.044 628.187 59.374C626.981 58.57 625.306 58.168 623.162 58.168C620.616 58.168 618.338 58.57 616.328 59.374C614.452 60.178 612.777 61.183 611.303 62.389C609.829 63.595 608.556 64.868 607.484 66.208C606.546 67.548 605.742 68.754 605.072 69.826V125.905C605.072 127.379 605.072 128.92 605.072 130.528C605.206 132.136 605.407 133.61 605.675 134.95C606.077 136.156 606.546 137.161 607.082 137.965C607.618 138.769 608.288 139.171 609.092 139.171C610.164 139.171 610.968 139.506 611.504 140.176C612.04 140.712 612.308 141.382 612.308 142.186C612.308 142.856 611.973 143.526 611.303 144.196C610.767 144.732 610.03 145 609.092 145H581.756C580.684 145 579.88 144.732 579.344 144.196C578.808 143.526 578.54 142.856 578.54 142.186C578.54 141.382 578.808 140.712 579.344 140.176C579.88 139.506 580.684 139.171 581.756 139.171C582.56 139.171 583.163 138.769 583.565 137.965C584.101 137.161 584.503 136.156 584.771 134.95C585.173 133.61 585.374 132.136 585.374 130.528C585.508 128.92 585.575 127.379 585.575 125.905V71.032C585.575 70.228 585.374 69.491 584.972 68.821C584.57 68.151 584.101 67.548 583.565 67.012C583.029 66.476 582.426 66.007 581.756 65.605C580.55 65.069 579.679 64.466 579.143 63.796C578.741 63.126 578.607 62.456 578.741 61.786C579.009 61.116 579.947 60.379 581.555 59.575C583.565 58.637 585.508 57.766 587.384 56.962C589.394 56.024 591.203 55.287 592.811 54.751C594.553 54.081 596.027 53.545 597.233 53.143C598.439 52.741 599.243 52.473 599.645 52.339C601.923 51.535 603.397 51.133 604.067 51.133C604.737 51.133 605.072 52.674 605.072 55.756V64.6C605.876 63.394 607.015 61.987 608.489 60.379C610.097 58.637 611.973 56.962 614.117 55.354C616.395 53.746 619.008 52.406 621.956 51.334C625.038 50.262 628.455 49.726 632.207 49.726C636.227 49.726 639.376 50.396 641.654 51.736C644.066 52.942 645.875 54.55 647.081 56.56C648.421 58.57 649.225 60.848 649.493 63.394C649.895 65.806 650.096 68.218 650.096 70.63V125.905C650.096 127.379 650.096 128.92 650.096 130.528C650.23 132.136 650.431 133.61 650.699 134.95C650.967 136.156 651.369 137.161 651.905 137.965C652.441 138.769 653.111 139.171 653.915 139.171Z" fill="black"/>
</svg>
