<svg width="44" height="43" viewBox="0 0 44 43" fill="none" xmlns="http://www.w3.org/2000/svg">
<path d="M21.8418 43C9.98923 43 0.341797 33.3526 0.341797 21.5C0.341797 9.64744 9.98923 0 21.8418 0C33.6944 0 43.3418 9.64744 43.3418 21.5C43.3418 33.3526 33.6944 43 21.8418 43ZM21.8418 3.30769C11.8085 3.30769 3.64949 11.4667 3.64949 21.5C3.64949 31.5333 11.8085 39.6923 21.8418 39.6923C31.8751 39.6923 40.0341 31.5333 40.0341 21.5C40.0341 11.4667 31.8751 3.30769 21.8418 3.30769Z" fill="black"/>
<path d="M21.8418 23.9808C23.2119 23.9808 24.3226 22.8701 24.3226 21.5C24.3226 20.1299 23.2119 19.0192 21.8418 19.0192C20.4717 19.0192 19.361 20.1299 19.361 21.5C19.361 22.8701 20.4717 23.9808 21.8418 23.9808Z" fill="black"/>
<path d="M31.7649 23.9808C33.135 23.9808 34.2457 22.8701 34.2457 21.5C34.2457 20.1299 33.135 19.0192 31.7649 19.0192C30.3948 19.0192 29.2841 20.1299 29.2841 21.5C29.2841 22.8701 30.3948 23.9808 31.7649 23.9808Z" fill="black"/>
<path d="M11.9187 23.9808C13.2888 23.9808 14.3995 22.8701 14.3995 21.5C14.3995 20.1299 13.2888 19.0192 11.9187 19.0192C10.5486 19.0192 9.43796 20.1299 9.43796 21.5C9.43796 22.8701 10.5486 23.9808 11.9187 23.9808Z" fill="black"/>
</svg>
